<svg width="384" height="70" viewBox="0 0 384 70" fill="none" xmlns="http://www.w3.org/2000/svg">
<path fill-rule="evenodd" clip-rule="evenodd" d="M24.5322 46.361C23.1626 57.3442 17.6994 69.6913 9.15832 69.6913C-3.19482 69.6913 -0.122989 47.8151 1.81605 34.1803C3.69501 20.9661 7.45309 2.25562 18.7786 2.25562C26.4686 2.25562 29.0279 11.4415 27.6044 22.3344H23.9062C24.5895 14.7021 23.7324 7.23238 17.9813 7.23238C8.98769 7.23238 6.53923 26.7962 5.34652 35.4587C3.97994 45.3264 0.902195 64.714 10.2973 64.714C16.6746 64.714 19.5216 54.2546 20.8313 46.3605H24.5324L24.5322 46.361Z" fill="white"/>
<path fill-rule="evenodd" clip-rule="evenodd" d="M47.3667 43.3534L46.3417 10.8407H46.2249L35.9786 43.3534H47.3666H47.3667ZM49.4166 3.80103L51.8051 68.1474H48.05L47.4776 48.3306H34.5012L28.2377 68.1474H24.6504L45.1463 3.80103H49.4169H49.4166Z" fill="white"/>
<path fill-rule="evenodd" clip-rule="evenodd" d="M64.6784 32.893H71.1666C72.4193 32.893 78.7997 32.2066 80.4509 20.7039C81.7575 11.2742 79.2521 8.77683 73.4441 8.77683H68.0948L64.6783 32.8918L64.6784 32.893ZM63.9951 37.8698L59.7245 68.1494H56.0234L65.077 3.8031H73.3334C81.1312 3.8031 86.0281 7.23077 84.2091 20.2778C83.2951 26.5417 80.5049 33.9166 75.7789 35.3799V35.547C80.451 37.4347 80.3341 43.1837 79.2523 51.2449C78.9106 54.334 77.0316 65.6605 78.9106 67.3811L78.7997 68.1488H74.754C73.8999 62.7385 75.6081 51.7597 76.0067 47.0494C76.8608 38.4642 72.6471 37.8682 67.8103 37.8682H63.9952L63.9951 37.8698Z" fill="white"/>
<path fill-rule="evenodd" clip-rule="evenodd" d="M83.582 68.1473L92.637 3.80219H111.99L111.307 8.77895H95.6517L92.4063 31.9457H106.641L105.897 36.9227H91.6646L87.964 63.1704H103.908L103.225 68.1473H83.582Z" fill="white"/>
<path fill-rule="evenodd" clip-rule="evenodd" d="M108.865 68.1473L117.919 3.80219H137.273L136.589 8.77895H120.933L117.688 31.9457H131.924L131.181 36.9227H116.948L113.247 63.1704H129.191L128.506 68.1473H108.865Z" fill="white"/>
<path fill-rule="evenodd" clip-rule="evenodd" d="M142.569 32.893H149.06C150.313 32.893 156.687 32.2066 158.339 20.7039C159.648 11.2742 157.143 8.77683 151.338 8.77683H145.986L142.569 32.8918V32.893ZM141.883 37.8698L137.618 68.1494H133.914L142.968 3.8031H151.224C159.022 3.8031 163.919 7.23077 162.097 20.2778C161.186 26.5417 158.396 33.9166 153.673 35.3799V35.547C158.339 37.4347 158.228 43.1837 157.143 51.2449C156.801 54.334 154.925 65.6605 156.801 67.3811L156.687 68.1488H152.645C151.793 62.7385 153.499 51.7597 153.897 47.0494C154.751 38.4642 150.541 37.8682 145.701 37.8682H141.883L141.883 37.8698Z" fill="white"/>
<path fill-rule="evenodd" clip-rule="evenodd" d="M161.592 68.1473L170.634 3.80219H194.216L192.451 16.6731H178.903L177.246 28.0863H189.71L187.899 40.957H175.419L171.61 68.1473H161.592Z" fill="white"/>
<path fill-rule="evenodd" clip-rule="evenodd" d="M212.548 22.5097C213.121 18.5582 213.576 13.8388 210.271 13.8388C207.085 13.8388 206.003 18.5582 205.434 22.5097L201.732 48.9301C201.163 52.6242 200.824 58.1113 204.067 58.1113C207.313 58.1113 208.281 52.6242 208.85 48.9301L212.548 22.5097H212.548ZM219.039 47.6467C216.99 62.1391 212.548 69.69 202.416 69.69C192.284 69.69 189.835 62.1391 191.882 47.6467L195.586 21.4761C197.294 9.11989 203.156 2.25989 211.922 2.25989C220.691 2.25989 224.449 9.11989 222.74 21.4761L219.039 47.6467H219.039Z" fill="white"/>
<path fill-rule="evenodd" clip-rule="evenodd" d="M229.796 3.80164H239.817L232.985 52.3676C232.529 55.4567 232.817 58.1076 235.661 58.1076C238.28 58.1076 239.533 54.68 239.931 51.9341L246.707 3.8021H256.726L250.181 50.3894C248.643 61.2868 244.202 69.6915 233.952 69.6915C225.471 69.6915 221.371 63.6038 223.25 50.3894L229.795 3.8021L229.796 3.80164Z" fill="white"/>
<path fill-rule="evenodd" clip-rule="evenodd" d="M266.245 32.1161L266.137 32.2911L261.972 68.1497H252.465L261.523 3.79944H271.82L274.498 39.7531H274.669L278.772 3.79944H288.279L279.221 68.1497H268.971L266.245 32.1161Z" fill="white"/>
<path fill-rule="evenodd" clip-rule="evenodd" d="M295.958 56.567C302.563 57.2535 303.189 53.1347 304.214 44.5541L307.232 23.5361C308.197 15.9852 306.606 15.5606 301.763 15.3846L295.958 56.568V56.567ZM284.285 68.1464L293.342 3.80011H304.214C307.858 3.80011 312.243 3.97624 315.087 6.80778C318.446 10.2401 318.219 16.5039 317.364 22.6775L313.325 51.2468C312.354 57.6868 310.364 62.4062 307.061 65.1474C304.1 67.7262 300.855 68.1462 297.777 68.1462H284.285V68.1464Z" fill="white"/>
<path fill-rule="evenodd" clip-rule="evenodd" d="M330.985 31.1711H334.398C337.302 31.1711 338.552 27.1382 339.067 23.1955C340.152 15.5588 338.099 15.2155 333.202 15.3826L330.985 31.1711V31.1711ZM325.746 68.1498H315.725L324.778 3.79877H339.409C347.608 3.79877 351.025 8.77553 349.2 21.5652C348.235 28.4297 346.466 33.3161 341.857 36.2337V36.4008C344.477 37.3447 346.068 40.2667 345.615 44.7285C345.16 49.8723 343.679 60.9414 343.679 65.06C343.79 65.9136 343.964 66.6903 344.306 67.291L344.189 68.149H333.262C333.145 66.9477 333.088 65.7464 333.202 64.4593C333.829 58.7961 334.797 53.4761 335.081 49.5335C335.369 45.582 334.913 43.0076 332.636 42.7502H329.333L325.746 68.1486L325.746 68.1498Z" fill="white"/>
<path fill-rule="evenodd" clip-rule="evenodd" d="M364.692 24.822H364.8L372.883 3.8031H382.916L367.37 41.1203L363.546 68.1497H353.528L357.352 41.1203L352.506 3.8031H362.648L364.692 24.822Z" fill="white"/>
</svg>
